<?xml version="1.0" ?>
<svg xmlns="http://www.w3.org/2000/svg" viewBox="0 0 900 360" width="900" height="360" font-family="ui-monospace, SFMono-Regular, Menlo, Consolas, monospace" role="img" aria-label="megabrain graph path lighting up a knowledge graph, hop by hop, with no LLM">
  <defs>
    <linearGradient id="bg" x1="0" y1="0" x2="1" y2="1">
      <stop offset="0" stop-color="#0b0a08"/>
      <stop offset="1" stop-color="#12100b"/>
    </linearGradient>
    <radialGradient id="glow" cx="0.5" cy="0.5" r="0.5">
      <stop offset="0" stop-color="#ffa64d" stop-opacity="0.38"/>
      <stop offset="1" stop-color="#ffa64d" stop-opacity="0"/>
    </radialGradient>
  </defs>
  <rect x="1" y="1" width="898" height="358" rx="14" fill="url(#bg)" stroke="#2a2118" stroke-width="1.5"/>
  <line x1="336" y1="18" x2="336" y2="342" stroke="#241d15" stroke-width="1"/>
  <circle cx="28" cy="30" r="4.5" fill="#ff5f56"/>
  <circle cx="46" cy="30" r="4.5" fill="#ffbd2e"/>
  <circle cx="64" cy="30" r="4.5" fill="#27c93f"/>
  <text x="320" y="34" text-anchor="end" font-size="10" fill="#8a7f70">megabrain</text>

  <!-- typed command -->
  <text x="20" y="74" font-size="11" fill="#ffa64d" font-weight="600">$</text>
  <text x="33" y="74" font-size="11" fill="#e9e4dc" opacity="0">megabrain graph<animate attributeName="opacity" values="0;0;1;1;0" keyTimes="0;0.04;0.08;0.96;1" dur="11s" repeatCount="indefinite"/></text>
  <text x="128" y="74" font-size="11" fill="#c6bcae" opacity="0">--path scoring narrator<animate attributeName="opacity" values="0;0;1;1;0" keyTimes="0;0.10;0.16;0.96;1" dur="11s" repeatCount="indefinite"/></text>
  <rect y="65" width="7" height="12" fill="#ffa64d" x="270" opacity="0.9">
    <animate attributeName="opacity" values="0.9;0.9;0.15;0.9;0.15;0.9;0" keyTimes="0;0.18;0.26;0.34;0.42;0.96;1" dur="11s" repeatCount="indefinite"/>
  </rect>

  <!-- warning + the answer, printed line by line -->
  <text x="20" y="106" font-size="10.5" fill="#d68a5a" opacity="0" style="white-space:pre">scoring.py and narrator.py never call each other —<animate attributeName="opacity" values="0;0;1;1;0" keyTimes="0;0.30;0.32;0.96;1" dur="11s" repeatCount="indefinite"/></text>
  <text x="20" y="122" font-size="10.5" fill="#d68a5a" opacity="0" style="white-space:pre">shown in call-flow order (the calls run this way)<animate attributeName="opacity" values="0;0;1;1;0" keyTimes="0;0.315;0.335;0.96;1" dur="11s" repeatCount="indefinite"/></text>

  <text x="20" y="152" font-size="11" fill="#ffa64d" opacity="0" style="white-space:pre">narrator.py<animate attributeName="opacity" values="0;0;1;1;0" keyTimes="0;0.345;0.365;0.96;1" dur="11s" repeatCount="indefinite"/></text>
  <text x="20" y="174" font-size="11" fill="#c6bcae" opacity="0" style="white-space:pre">  └─ call → agents.py    · via stream_events<animate attributeName="opacity" values="0;0;1;1;0" keyTimes="0;0.42;0.44;0.96;1" dur="11s" repeatCount="indefinite"/></text>
  <text x="20" y="196" font-size="11" fill="#c6bcae" opacity="0" style="white-space:pre">  └─ call → scoring.py   · via ident_tokens<animate attributeName="opacity" values="0;0;1;1;0" keyTimes="0;0.49;0.51;0.96;1" dur="11s" repeatCount="indefinite"/></text>

  <text x="20" y="236" font-size="11.5" fill="#8ac89a" font-weight="600" opacity="0" style="white-space:pre">2 hops · real call sites · 0 files opened<animate attributeName="opacity" values="0;0;1;1;0" keyTimes="0;0.56;0.58;0.96;1" dur="11s" repeatCount="indefinite"/></text>
  <text x="20" y="330" font-size="10" fill="#8a7f70" opacity="0" style="white-space:pre">no LLM in the retrieval path · ~200ms<animate attributeName="opacity" values="0;0;1;1;0" keyTimes="0;0.60;0.62;0.96;1" dur="11s" repeatCount="indefinite"/></text>

  <!-- background graph (faint) -->
  <g stroke="#2a2118" stroke-width="1">
    <line x1="412.9" y1="59.4" x2="379.4" y2="90.4"/><line x1="417.1" y1="114.5" x2="398.1" y2="146.0"/>
    <line x1="476.6" y1="183.6" x2="448.7" y2="145.4"/><line x1="412.9" y1="59.4" x2="417.1" y2="114.5"/>
    <line x1="850.3" y1="132.3" x2="828.8" y2="169.5"/><line x1="866.7" y1="224.6" x2="828.8" y2="169.5"/>
    <line x1="775.6" y1="32.0" x2="817.4" y2="56.4"/><line x1="773.7" y1="242.2" x2="738.7" y2="235.7"/>
    <line x1="481.9" y1="39.8" x2="481.3" y2="118.0"/><line x1="817.4" y1="56.4" x2="806.0" y2="120.0"/>
    <line x1="448.7" y1="145.4" x2="481.3" y2="118.0"/><line x1="766.8" y1="158.3" x2="806.0" y2="120.0"/>
    <line x1="870.8" y1="184.9" x2="828.8" y2="169.5"/><line x1="379.4" y1="90.4" x2="412.9" y2="59.4"/>
    <line x1="637.3" y1="325.8" x2="738.7" y2="235.7"/><line x1="557.5" y1="197.8" x2="531.0" y2="118.0"/>
    <line x1="579.5" y1="39.1" x2="531.0" y2="118.0"/><line x1="452.6" y1="251.7" x2="406.0" y2="205.0"/>
    <line x1="689.5" y1="37.6" x2="650.1" y2="109.9"/><line x1="637.3" y1="325.8" x2="671.0" y2="210.0"/>
    <line x1="501.1" y1="314.7" x2="557.5" y2="197.8"/><line x1="398.1" y1="146.0" x2="448.7" y2="145.4"/>
    <line x1="650.1" y1="109.9" x2="689.5" y2="37.6"/><line x1="687.7" y1="140.9" x2="671.0" y2="210.0"/>
    <line x1="452.6" y1="251.7" x2="476.6" y2="183.6"/><line x1="579.5" y1="39.1" x2="481.9" y2="39.8"/>
    <line x1="689.5" y1="37.6" x2="775.6" y2="32.0"/><line x1="817.4" y1="56.4" x2="775.6" y2="32.0"/>
    <line x1="738.7" y1="235.7" x2="794.8" y2="213.5"/>
    <circle cx="689.5" cy="37.6" r="3.4" fill="#3a3128"/><circle cx="738.7" cy="235.7" r="3.4" fill="#3a3128"/>
    <circle cx="817.4" cy="56.4" r="3.4" fill="#3a3128"/><circle cx="579.5" cy="39.1" r="3.4" fill="#3a3128"/>
    <circle cx="476.6" cy="183.6" r="3.4" fill="#3a3128"/><circle cx="379.4" cy="90.4" r="3.4" fill="#3a3128"/>
    <circle cx="775.6" cy="32.0" r="3.4" fill="#3a3128"/><circle cx="773.7" cy="242.2" r="3.4" fill="#3a3128"/>
    <circle cx="850.3" cy="132.3" r="3.4" fill="#3a3128"/><circle cx="412.9" cy="59.4" r="3.4" fill="#3a3128"/>
    <circle cx="794.8" cy="213.5" r="3.4" fill="#3a3128"/><circle cx="637.3" cy="325.8" r="3.4" fill="#3a3128"/>
    <circle cx="557.5" cy="197.8" r="3.4" fill="#3a3128"/><circle cx="481.3" cy="118.0" r="3.4" fill="#3a3128"/>
    <circle cx="417.1" cy="114.5" r="3.4" fill="#3a3128"/><circle cx="687.7" cy="140.9" r="3.4" fill="#3a3128"/>
    <circle cx="501.1" cy="314.7" r="3.4" fill="#3a3128"/><circle cx="452.6" cy="251.7" r="3.4" fill="#3a3128"/>
    <circle cx="481.9" cy="39.8" r="3.4" fill="#3a3128"/><circle cx="828.8" cy="169.5" r="3.4" fill="#3a3128"/>
    <circle cx="870.8" cy="184.9" r="3.4" fill="#3a3128"/><circle cx="766.8" cy="158.3" r="3.4" fill="#3a3128"/>
    <circle cx="398.1" cy="146.0" r="3.4" fill="#3a3128"/><circle cx="866.7" cy="224.6" r="3.4" fill="#3a3128"/>
    <circle cx="850.3" cy="132.3" r="3.4" fill="#3a3128"/>
  </g>

  <!-- the path: narrator (806,120) → agents (671,210) → scoring (531,118), lit hop by hop -->
  <line x1="806" y1="120" x2="671" y2="210" stroke="#2a2118" stroke-width="1.2"/>
  <line x1="671" y1="210" x2="531" y2="118" stroke="#2a2118" stroke-width="1.2"/>
  <line x1="806" y1="120" x2="671" y2="210" stroke="#ffa64d" stroke-width="2" stroke-linecap="round" stroke-dasharray="162.2" stroke-dashoffset="162.2">
    <animate attributeName="stroke-dashoffset" values="162.2;162.2;0;0;162.2" keyTimes="0;0.42;0.47;0.96;1" dur="11s" repeatCount="indefinite"/>
  </line>
  <text x="738.5" y="159" font-size="9" fill="#ffb86b" text-anchor="middle" opacity="0" font-style="italic">stream_events<animate attributeName="opacity" values="0;0;1;1;0" keyTimes="0;0.445;0.46;0.96;1" dur="11s" repeatCount="indefinite"/></text>
  <line x1="671" y1="210" x2="531" y2="118" stroke="#ffa64d" stroke-width="2" stroke-linecap="round" stroke-dasharray="167.5" stroke-dashoffset="167.5">
    <animate attributeName="stroke-dashoffset" values="167.5;167.5;0;0;167.5" keyTimes="0;0.49;0.54;0.96;1" dur="11s" repeatCount="indefinite"/>
  </line>
  <text x="601" y="158" font-size="9" fill="#ffb86b" text-anchor="middle" opacity="0" font-style="italic">ident_tokens<animate attributeName="opacity" values="0;0;1;1;0" keyTimes="0;0.515;0.53;0.96;1" dur="11s" repeatCount="indefinite"/></text>

  <!-- node A: narrator.py -->
  <circle cx="806" cy="120" r="20" fill="url(#glow)" opacity="0"><animate attributeName="opacity" values="0;0;1;1;0" keyTimes="0;0.345;0.36;0.96;1" dur="11s" repeatCount="indefinite"/></circle>
  <circle cx="806" cy="120" r="4" fill="#3a3128"><animate attributeName="fill" values="#3a3128;#3a3128;#ffc98a;#ffa64d;#ffa64d;#3a3128" keyTimes="0;0.345;0.351;0.365;0.96;1" dur="11s" repeatCount="indefinite"/><animate attributeName="r" values="4;4;8;5.6;5.6;4" keyTimes="0;0.345;0.35;0.363;0.96;1" dur="11s" repeatCount="indefinite"/></circle>
  <text x="806" y="106" font-size="10.5" fill="#e9e4dc" text-anchor="middle" opacity="0" font-weight="600">narrator.py<animate attributeName="opacity" values="0;0;1;1;0" keyTimes="0;0.355;0.367;0.96;1" dur="11s" repeatCount="indefinite"/></text>
  <!-- node B: agents.py -->
  <circle cx="671" cy="210" r="20" fill="url(#glow)" opacity="0"><animate attributeName="opacity" values="0;0;1;1;0" keyTimes="0;0.465;0.48;0.96;1" dur="11s" repeatCount="indefinite"/></circle>
  <circle cx="671" cy="210" r="4" fill="#3a3128"><animate attributeName="fill" values="#3a3128;#3a3128;#ffc98a;#ffa64d;#ffa64d;#3a3128" keyTimes="0;0.465;0.471;0.485;0.96;1" dur="11s" repeatCount="indefinite"/><animate attributeName="r" values="4;4;8;5.6;5.6;4" keyTimes="0;0.465;0.47;0.483;0.96;1" dur="11s" repeatCount="indefinite"/></circle>
  <text x="671" y="232" font-size="10.5" fill="#e9e4dc" text-anchor="middle" opacity="0" font-weight="600">agents.py<animate attributeName="opacity" values="0;0;1;1;0" keyTimes="0;0.475;0.487;0.96;1" dur="11s" repeatCount="indefinite"/></text>
  <!-- node C: scoring.py -->
  <circle cx="531" cy="118" r="20" fill="url(#glow)" opacity="0"><animate attributeName="opacity" values="0;0;1;1;0" keyTimes="0;0.535;0.55;0.96;1" dur="11s" repeatCount="indefinite"/></circle>
  <circle cx="531" cy="118" r="4" fill="#3a3128"><animate attributeName="fill" values="#3a3128;#3a3128;#ffc98a;#ffa64d;#ffa64d;#3a3128" keyTimes="0;0.535;0.541;0.555;0.96;1" dur="11s" repeatCount="indefinite"/><animate attributeName="r" values="4;4;8;5.6;5.6;4" keyTimes="0;0.535;0.54;0.553;0.96;1" dur="11s" repeatCount="indefinite"/></circle>
  <text x="531" y="104" font-size="10.5" fill="#e9e4dc" text-anchor="middle" opacity="0" font-weight="600">scoring.py<animate attributeName="opacity" values="0;0;1;1;0" keyTimes="0;0.545;0.557;0.96;1" dur="11s" repeatCount="indefinite"/></text>
</svg>
